# xmcd
#
# Track frame offsets: 
#        150
#        10738
#        24479
#        36244
#        44065
#        58022
#        70063
#        82981
#        92088
#        111180
#        126050
#        135898
#        146393
#        163582
#
# Disc length: 2358 seconds
#
# Revision: 0
# Processed by: cddbd v1.5.2PL0 Copyright (c) Steve Scherf et al.
# Submitted via: ExactAudioCopy v0.99pb4
#
DISCID=b209340e
DTITLE=Shellac Brothers - Barrel of Fun
DYEAR=2007
DGENRE=Western Swing
TTITLE0=Barrel Of Fun
TTITLE1=Tomorrow Night
TTITLE2=Mississippi Girl
TTITLE3=Remember I Feel Lonesome Too
TTITLE4=Brother Can You Spare A Dime
TTITLE5=Oh Yes
TTITLE6=Tonight I Will Smile With You
TTITLE7=When The Sun Goes Down In Harlem
TTITLE8=Put Me On A Train To Carolina
TTITLE9=When I Take My Vacation In Harlem
TTITLE10=Two Glasses Joe
TTITLE11=You're Gonna Change
TTITLE12=Biquits
TTITLE13=Stop Truckin' And Suzi Q
EXTD=
EXTT0=
EXTT1=
EXTT2=
EXTT3=
EXTT4=
EXTT5=
EXTT6=
EXTT7=
EXTT8=
EXTT9=
EXTT10=
EXTT11=
EXTT12=
EXTT13=
PLAYORDER=
